<?xml version="1.0" encoding="UTF-8" standalone="no"?> <svg id="Layer_1" data-name="Layer 1" xmlns="http://www.w3.org/2000/svg" viewBox="0 0 512 512"><defs><style>.cls-1{fill:#ffd38d;}.cls-2{fill:#6d4135;}</style></defs><title>signpost-filled</title><polygon class="cls-1" points="490.67 170.67 407.84 64 21.33 64 21.33 277.33 407.84 277.33 490.67 170.67"/><path class="cls-2" d="M507.52,157.58,424.69,50.92a21.32,21.32,0,0,0-16.85-8.25H192V21.33a21.33,21.33,0,1,0-42.67,0V42.67h-128A21.33,21.33,0,0,0,0,64V277.33a21.33,21.33,0,0,0,21.33,21.33h128v192a21.33,21.33,0,1,0,42.67,0v-192H407.84a21.32,21.32,0,0,0,16.85-8.25l82.82-106.67A21.33,21.33,0,0,0,507.52,157.58ZM397.4,256H42.67V85.33H397.4l66.26,85.33Z"/></svg>